REM DIRINDEX 1\2\4,1\2\5,1\2\6,1\3\7,1\3\8,1\3\9,1\3\10
REM DIRNAME cjc057,folder01,folder02,folder03,folder04,folder05,folder06,folder07,folder08,folder09
TITLE ""
FILE "b_132.mp3" MP3
  TRACK 01 AUDIO
    TITLE "0:"
    INDEX 01 00:00:00
  TRACK 02 AUDIO
    TITLE "7:cjc057_08225"
    INDEX 01 00:00:17
  TRACK 03 AUDIO
    TITLE "0:"
    INDEX 01 00:01:54
  TRACK 04 AUDIO
    TITLE "8:cjc057_08226"
    INDEX 01 00:02:16
  TRACK 05 AUDIO
    TITLE "0:"
    INDEX 01 00:04:05
  TRACK 06 AUDIO
    TITLE "7:cjc057_08227"
    INDEX 01 00:05:14
  TRACK 07 AUDIO
    TITLE "0:"
    INDEX 01 00:06:45
  TRACK 08 AUDIO
    TITLE "8:cjc057_08228"
    INDEX 01 00:07:05
  TRACK 09 AUDIO
    TITLE "0:"
    INDEX 01 00:09:30
  TRACK 10 AUDIO
    TITLE "7:cjc057_08229"
    INDEX 01 00:10:37
  TRACK 11 AUDIO
    TITLE "0:"
    INDEX 01 00:11:42
  TRACK 12 AUDIO
    TITLE "8:cjc057_08230"
    INDEX 01 00:12:03
  TRACK 13 AUDIO
    TITLE "0:"
    INDEX 01 00:14:09
  TRACK 14 AUDIO
    TITLE "7:cjc057_08231"
    INDEX 01 00:15:19
  TRACK 15 AUDIO
    TITLE "0:"
    INDEX 01 00:16:63
  TRACK 16 AUDIO
    TITLE "8:cjc057_08232"
    INDEX 01 00:17:23
  TRACK 17 AUDIO
    TITLE "0:"
    INDEX 01 00:19:42
  TRACK 18 AUDIO
    TITLE "7:cjc057_08233"
    INDEX 01 00:20:55
  TRACK 19 AUDIO
    TITLE "0:"
    INDEX 01 00:22:11
  TRACK 20 AUDIO
    TITLE "8:cjc057_08234"
    INDEX 01 00:22:48
  TRACK 21 AUDIO
    TITLE "0:"
    INDEX 01 00:24:57
  TRACK 22 AUDIO
    TITLE "7:cjc057_08235"
    INDEX 01 00:25:66
  TRACK 23 AUDIO
    TITLE "0:"
    INDEX 01 00:27:06
  TRACK 24 AUDIO
    TITLE "8:cjc057_08236"
    INDEX 01 00:27:39
  TRACK 25 AUDIO
    TITLE "0:"
    INDEX 01 00:29:60
  TRACK 26 AUDIO
    TITLE "7:cjc057_08237"
    INDEX 01 00:30:69
  TRACK 27 AUDIO
    TITLE "0:"
    INDEX 01 00:32:19
  TRACK 28 AUDIO
    TITLE "8:cjc057_08238"
    INDEX 01 00:32:54
  TRACK 29 AUDIO
    TITLE "0:"
    INDEX 01 00:33:60
  TRACK 30 AUDIO
    TITLE "7:cjc057_08239"
    INDEX 01 00:34:71
  TRACK 31 AUDIO
    TITLE "0:"
    INDEX 01 00:36:17
  TRACK 32 AUDIO
    TITLE "8:cjc057_08240"
    INDEX 01 00:36:54
  TRACK 33 AUDIO
    TITLE "0:"
    INDEX 01 00:39:27
  TRACK 34 AUDIO
    TITLE "7:cjc057_08241"
    INDEX 01 00:40:38
  TRACK 35 AUDIO
    TITLE "0:"
    INDEX 01 00:41:49
  TRACK 36 AUDIO
    TITLE "8:cjc057_08242"
    INDEX 01 00:42:08
  TRACK 37 AUDIO
    TITLE "0:"
    INDEX 01 00:43:15
  TRACK 38 AUDIO
    TITLE "7:cjc057_08243"
    INDEX 01 00:44:26
  TRACK 39 AUDIO
    TITLE "0:"
    INDEX 01 00:46:06
  TRACK 40 AUDIO
    TITLE "8:cjc057_08244"
    INDEX 01 00:46:41
  TRACK 41 AUDIO
    TITLE "0:"
    INDEX 01 00:47:30
  TRACK 42 AUDIO
    TITLE "7:cjc057_08245"
    INDEX 01 00:48:38
  TRACK 43 AUDIO
    TITLE "0:"
    INDEX 01 00:49:69
  TRACK 44 AUDIO
    TITLE "8:cjc057_08246"
    INDEX 01 00:50:27
  TRACK 45 AUDIO
    TITLE "0:"
    INDEX 01 00:51:30
  TRACK 46 AUDIO
    TITLE "7:cjc057_08247"
    INDEX 01 00:52:39
  TRACK 47 AUDIO
    TITLE "0:"
    INDEX 01 00:53:60
  TRACK 48 AUDIO
    TITLE "8:cjc057_08248"
    INDEX 01 00:54:21
  TRACK 49 AUDIO
    TITLE "0:"
    INDEX 01 00:57:39
  TRACK 50 AUDIO
    TITLE "7:cjc057_08249"
    INDEX 01 00:58:48
  TRACK 51 AUDIO
    TITLE "0:"
    INDEX 01 01:00:06
  TRACK 52 AUDIO
    TITLE "8:cjc057_08250"
    INDEX 01 01:00:41
  TRACK 53 AUDIO
    TITLE "0:"
    INDEX 01 01:04:17
  TRACK 54 AUDIO
    TITLE "7:cjc057_08251"
    INDEX 01 01:05:26
  TRACK 55 AUDIO
    TITLE "0:"
    INDEX 01 01:06:69
  TRACK 56 AUDIO
    TITLE "8:cjc057_08252"
    INDEX 01 01:07:31
  TRACK 57 AUDIO
    TITLE "0:"
    INDEX 01 01:09:56
  TRACK 58 AUDIO
    TITLE "7:cjc057_08253"
    INDEX 01 01:10:65
  TRACK 59 AUDIO
    TITLE "0:"
    INDEX 01 01:12:03
  TRACK 60 AUDIO
    TITLE "8:cjc057_08254"
    INDEX 01 01:12:38
  TRACK 61 AUDIO
    TITLE "0:"
    INDEX 01 01:13:63
  TRACK 62 AUDIO
    TITLE "7:cjc057_08255"
    INDEX 01 01:14:72
  TRACK 63 AUDIO
    TITLE "0:"
    INDEX 01 01:16:30
  TRACK 64 AUDIO
    TITLE "8:cjc057_08256"
    INDEX 01 01:16:67
  TRACK 65 AUDIO
    TITLE "0:"
    INDEX 01 01:18:13
  TRACK 66 AUDIO
    TITLE "7:cjc057_08257"
    INDEX 01 01:19:25
  TRACK 67 AUDIO
    TITLE "0:"
    INDEX 01 01:20:49
  TRACK 68 AUDIO
    TITLE "8:cjc057_08258"
    INDEX 01 01:21:08
  TRACK 69 AUDIO
    TITLE "0:"
    INDEX 01 01:22:27
  TRACK 70 AUDIO
    TITLE "7:cjc057_08259"
    INDEX 01 01:23:34
  TRACK 71 AUDIO
    TITLE "0:"
    INDEX 01 01:24:59
  TRACK 72 AUDIO
    TITLE "8:cjc057_08260"
    INDEX 01 01:25:19
  TRACK 73 AUDIO
    TITLE "0:"
    INDEX 01 01:26:30
  TRACK 74 AUDIO
    TITLE "7:cjc057_08261"
    INDEX 01 01:27:40
  TRACK 75 AUDIO
    TITLE "0:"
    INDEX 01 01:28:65
  TRACK 76 AUDIO
    TITLE "8:cjc057_08262"
    INDEX 01 01:29:27
  TRACK 77 AUDIO
    TITLE "0:"
    INDEX 01 01:30:26
  TRACK 78 AUDIO
    TITLE "7:cjc057_08263"
    INDEX 01 01:31:36
  TRACK 79 AUDIO
    TITLE "0:"
    INDEX 01 01:33:05
  TRACK 80 AUDIO
    TITLE "8:cjc057_08264"
    INDEX 01 01:33:42
  TRACK 81 AUDIO
    TITLE "0:"
    INDEX 01 01:34:61
  TRACK 82 AUDIO
    TITLE "7:cjc057_08265"
    INDEX 01 01:35:71
  TRACK 83 AUDIO
    TITLE "0:"
    INDEX 01 01:37:19
  TRACK 84 AUDIO
    TITLE "8:cjc057_08266"
    INDEX 01 01:37:54
  TRACK 85 AUDIO
    TITLE "0:"
    INDEX 01 01:41:10
  TRACK 86 AUDIO
    TITLE "7:cjc057_08267"
    INDEX 01 01:42:20
  TRACK 87 AUDIO
    TITLE "0:"
    INDEX 01 01:43:64
  TRACK 88 AUDIO
    TITLE "8:cjc057_08268"
    INDEX 01 01:44:23
  TRACK 89 AUDIO
    TITLE "0:"
    INDEX 01 01:45:32
  TRACK 90 AUDIO
    TITLE "7:cjc057_08269"
    INDEX 01 01:46:43
  TRACK 91 AUDIO
    TITLE "0:"
    INDEX 01 01:47:68
  TRACK 92 AUDIO
    TITLE "8:cjc057_08270"
    INDEX 01 01:48:30
  TRACK 93 AUDIO
    TITLE "0:"
    INDEX 01 01:50:54
  TRACK 94 AUDIO
    TITLE "7:cjc057_08271"
    INDEX 01 01:51:64
  TRACK 95 AUDIO
    TITLE "0:"
    INDEX 01 01:53:12
  TRACK 96 AUDIO
    TITLE "8:cjc057_08272"
    INDEX 01 01:53:47
  TRACK 97 AUDIO
    TITLE "0:"
    INDEX 01 01:54:60
  TRACK 98 AUDIO
    TITLE "7:cjc057_08273"
    INDEX 01 01:55:71
  TRACK 99 AUDIO
    TITLE "0:"
    INDEX 01 01:57:13
  TRACK 100 AUDIO
    TITLE "8:cjc057_08274"
    INDEX 01 01:57:47
  TRACK 101 AUDIO
    TITLE "0:"
    INDEX 01 01:58:36
  TRACK 102 AUDIO
    TITLE "7:cjc057_08275"
    INDEX 01 01:59:48
  TRACK 103 AUDIO
    TITLE "0:"
    INDEX 01 02:01:03
  TRACK 104 AUDIO
    TITLE "8:cjc057_08276"
    INDEX 01 02:01:37
  TRACK 105 AUDIO
    TITLE "0:"
    INDEX 01 02:02:42
  TRACK 106 AUDIO
    TITLE "7:cjc057_08277"
    INDEX 01 02:03:51
  TRACK 107 AUDIO
    TITLE "0:"
    INDEX 01 02:04:74
  TRACK 108 AUDIO
    TITLE "8:cjc057_08278"
    INDEX 01 02:05:34
  TRACK 109 AUDIO
    TITLE "0:"
    INDEX 01 02:07:47
  TRACK 110 AUDIO
    TITLE "7:cjc057_08279"
    INDEX 01 02:08:58
  TRACK 111 AUDIO
    TITLE "0:"
    INDEX 01 02:10:12
  TRACK 112 AUDIO
    TITLE "8:cjc057_08280"
    INDEX 01 02:10:49
  TRACK 113 AUDIO
    TITLE "0:"
    INDEX 01 02:13:48
